<svg id="Capa_1" enable-background="new 0 0 512 512" height="512" viewBox="0 0 512 512" width="512" xmlns="http://www.w3.org/2000/svg"><g><path d="m448 0h-352c-8.284 0-15 6.716-15 15v66h-17c-8.284 0-15 6.716-15 15s6.716 15 15 15h17v50h-17c-8.284 0-15 6.716-15 15s6.716 15 15 15h17v50h-17c-8.284 0-15 6.716-15 15s6.716 15 15 15h17v50h-17c-8.284 0-15 6.716-15 15s6.716 15 15 15h17v50h-17c-8.284 0-15 6.716-15 15s6.716 15 15 15h17v66c0 8.284 6.716 15 15 15h352c8.284 0 15-6.716 15-15v-482c0-8.284-6.716-15-15-15zm-96 375c-8.284 0-15-6.716-15-15 0-39.816-24.313-81-65-81s-65 41.184-65 81c0 8.284-6.716 15-15 15s-15-6.716-15-15c0-38.11 17.399-77.596 49.26-97.756-15.433-13.034-25.26-32.509-25.26-54.244 0-39.149 31.851-71 71-71s71 31.851 71 71c0 21.735-9.827 41.21-25.26 54.244 31.862 20.161 49.26 59.64 49.26 97.756 0 8.284-6.716 15-15 15z"/><circle cx="272" cy="208" r="41"/></g></svg>