<svg id="_x33_0" enable-background="new 0 0 64 64" height="512" viewBox="0 0 64 64" width="512" xmlns="http://www.w3.org/2000/svg"><g><path d="m20 39c-.931 0-1.839-.09-2.735-.22-.17.382-.265.794-.265 1.22v3h6v-3c0-.425-.094-.836-.264-1.217-.902.131-1.813.217-2.736.217z"/><path d="m17 60c0 .551.449 1 1 1h4c.551 0 1-.449 1-1v-15h-6z"/><path d="m25 25h12v-10h-12zm2.707-4.707 1.293 1.293 5.293-5.293 1.414 1.414-6.707 6.707-2.707-2.707z"/><path d="m61 15h-22v10h22.001zm-18 6h-2v-2h2zm4 0h-2v-2h2zm4 0h-2v-2h2zm4 0h-2v-2h2zm4 0h-2v-2h2z"/><path d="m35.48 27h-5.746c-2.179 3.024-5.721 5-9.733 5-6.627 0-12-5.373-12-12s5.373-12 12-12c4.012 0 7.555 1.976 9.733 5h5.746c-2.67-5.893-8.589-10-15.48-10-9.389 0-17 7.611-17 17s7.611 17 17 17c6.891 0 12.81-4.107 15.48-10z"/><path d="m33 43h14v-10h-14zm10-6h2v2h-2zm-4 0h2v2h-2zm-4 0h2v2h-2z"/><path d="m49 43h12v-10h-12zm2.293-7.293 1.414-1.414 2.293 2.293 2.293-2.293 1.414 1.414-2.293 2.293 2.293 2.293-1.414 1.414-2.293-2.293-2.293 2.293-1.414-1.414 2.293-2.293z"/><path d="m29 61h12v-10h-12zm2.707-4.707 1.293 1.293 5.293-5.293 1.414 1.414-6.707 6.707-2.707-2.707z"/><path d="m43 51v10h14.001l-.001-10zm4 6h-2v-2h2zm4 0h-2v-2h2zm4 0h-2v-2h2z"/></g></svg>